<svg id="Capa_1" enable-background="new 0 0 512 512" height="512" viewBox="0 0 512 512" width="512" xmlns="http://www.w3.org/2000/svg"><g><path d="m256.906 374.394h-1.812c-90.786 0-164.382-73.596-164.382-164.382v-110.844h330.576v110.844c0 90.786-73.596 164.382-164.382 164.382z" fill="#c9ebfa"/><path d="m148.028 129.335c-3.887 0-7.039 3.151-7.039 7.039v102.894c0 49.652 21.89 94.196 56.55 124.492-62.432-23.609-106.826-83.95-106.826-154.658v-109.932h330.572v30.165z" fill="#a0ddf3"/><path d="m429.729 99.168h-347.458c-8.284 0-15-6.716-15-15v-76.626h377.458v76.627c0 8.284-6.716 14.999-15 14.999z" fill="#eefaff"/><path d="m132.634 99.17h-50.276c-8.336 0-15.083-6.757-15.083-15.083v-76.55h50.276v76.55c0 8.326 6.747 15.083 15.083 15.083z" fill="#dff1f7"/><circle cx="256" cy="246.756" fill="#01d0fb" r="84.805"/><path d="m271.083 330.226c-4.897.875-9.934 1.337-15.083 1.337-46.837 0-84.805-37.968-84.805-84.805s37.968-84.805 84.805-84.805c5.148 0 10.186.463 15.083 1.337-39.637 7.119-69.722 41.779-69.722 83.468s30.084 76.349 69.722 83.468z" fill="#08a9f1"/><circle cx="256" cy="261.013" fill="#eefaff" r="30.165"/><circle cx="145.529" cy="151.012" fill="#f37c7b" r="20.11"/><g><path d="m444.729 0h-377.458c-4.165 0-7.541 3.376-7.541 7.541v76.545c0 12.475 10.149 22.624 22.624 22.624h.819v102.392c0 95.303 77.53 172.838 172.827 172.838s172.827-77.534 172.827-172.838v-28.104c0-4.165-3.376-7.541-7.541-7.541s-7.541 3.376-7.541 7.541v28.104c0 86.986-70.764 157.755-157.745 157.755s-157.745-70.769-157.745-157.755v-102.391h315.489v41.427c0 4.165 3.376 7.541 7.541 7.541s7.541-3.376 7.541-7.541v-41.428h.819c12.475 0 22.624-10.149 22.624-22.624v-76.545c.001-4.165-3.375-7.541-7.54-7.541zm-15.083 91.627h-347.292c-4.159 0-7.541-3.383-7.541-7.541v-22.754h54.282c4.165 0 7.541-3.376 7.541-7.541s-3.376-7.541-7.541-7.541h-54.283v-31.167h362.375v31.167h-275.222c-4.165 0-7.541 3.376-7.541 7.541s3.376 7.541 7.541 7.541h275.223v22.754c0 4.158-3.383 7.541-7.542 7.541z"/><path d="m275.503 337.036c41.666-8.954 72.843-47.635 72.843-90.278 0-50.92-41.426-92.346-92.346-92.346s-92.346 41.426-92.346 92.346c0 44.842 31.994 83.077 76.074 90.913.447.08.891.118 1.329.118 3.586 0 6.767-2.569 7.416-6.223.73-4.101-2.004-8.016-6.105-8.745-36.87-6.555-63.631-38.543-63.631-76.063 0-42.603 34.661-77.263 77.263-77.263s77.263 34.66 77.263 77.263c0 36.179-25.625 67.945-60.93 75.532-4.071.875-6.663 4.885-5.789 8.957.876 4.073 4.886 6.664 8.959 5.789z"/><path d="m293.707 261.013c0-20.792-16.915-37.707-37.707-37.707s-37.707 16.915-37.707 37.707 16.915 37.707 37.707 37.707 37.707-16.915 37.707-37.707zm-37.707 22.624c-12.475 0-22.624-10.149-22.624-22.624s10.149-22.624 22.624-22.624 22.624 10.149 22.624 22.624-10.149 22.624-22.624 22.624z"/><path d="m145.529 123.36c-15.247 0-27.652 12.404-27.652 27.652s12.405 27.652 27.652 27.652 27.652-12.404 27.652-27.652-12.405-27.652-27.652-27.652zm0 40.221c-6.931 0-12.569-5.638-12.569-12.569s5.638-12.569 12.569-12.569 12.569 5.638 12.569 12.569-5.638 12.569-12.569 12.569z"/><path d="m350.166 457.85c-25.192 25.193-58.633 39.067-94.163 39.067-35.529 0-68.97-13.874-94.162-39.067-2.945-2.945-7.719-2.945-10.666 0-2.945 2.945-2.945 7.72 0 10.665 28.042 28.042 65.27 43.485 104.828 43.485 39.559 0 76.787-15.443 104.829-43.485 2.945-2.945 2.945-7.72 0-10.665-2.946-2.945-7.721-2.945-10.666 0z"/><path d="m179.6 429.426c-2.944 2.946-2.943 7.721.003 10.665 20.446 20.435 47.579 31.689 76.4 31.689 28.822 0 55.955-11.254 76.401-31.689 2.946-2.944 2.948-7.719.003-10.665-2.945-2.947-7.72-2.946-10.665-.003-17.598 17.588-40.944 27.274-65.739 27.274-24.794 0-48.14-9.686-65.738-27.274-2.945-2.945-7.72-2.944-10.665.003z"/><path d="m303.972 411.651c2.944-2.946 2.942-7.721-.005-10.665-2.946-2.943-7.721-2.942-10.665.005-9.978 9.986-23.224 15.486-37.299 15.486-14.076 0-27.322-5.499-37.298-15.486-2.944-2.946-7.719-2.949-10.665-.005-2.947 2.944-2.949 7.719-.005 10.665 12.825 12.838 29.861 19.908 47.968 19.908s35.143-7.07 47.969-19.908z"/></g></g></svg>