<?xml version="1.0" encoding="utf-8"?>
<!-- Svg Vector Icons : http://www.onlinewebfonts.com/icon -->
<!DOCTYPE svg PUBLIC "-//W3C//DTD SVG 1.1//EN" "http://www.w3.org/Graphics/SVG/1.1/DTD/svg11.dtd">
<svg version="1.1" xmlns="http://www.w3.org/2000/svg" xmlns:xlink="http://www.w3.org/1999/xlink" x="0px" y="0px" viewBox="0 0 1000 1000" enable-background="new 0 0 1000 1000" xml:space="preserve">
<metadata> Svg Vector Icons : http://www.onlinewebfonts.com/icon </metadata>
<g><path d="M135.2,498.5c50.9,0,84.7-33.9,84.7-84.7l-0.2-26.7c0,0-12.6-75.8,88.5-75.8l409.3,2.8v108.1c19.8,19.8,52,19.8,71.9,0l158.1-158c19.8-19.9,19.8-52.1,0-71.9L789.3,24.8c-19.8-19.8-52-19.8-71.9,0v113.4c-9.9-2.9-396.5-4.5-396.5-4.5C92.9,133.7,43,282.9,43,343v63.4C43,457.2,84.3,498.5,135.2,498.5L135.2,498.5z"/><path d="M870.1,501.1c-50.9,0-92.2,35.9-92.2,86.8l0.1,58.8c-2.8,21.9-39.6,36.3-93.7,36.3H282.6l-0.1-95.8c-19.8-19.8-52-19.8-71.9,0l-158,158c-19.8,19.9-19.8,52.1,0,71.9l158,158c19.9,19.9,52.1,19.9,71.9,0l0.1-113.7h401.8c228,0,277.9-150.1,277.9-210.2v-63.4C962.3,536.9,921,501.1,870.1,501.1L870.1,501.1z"/></g>
</svg>