<svg xmlns="http://www.w3.org/2000/svg"  viewBox="0 0 100 100" width="100px" height="100px"><path fill="#8f9eb6" d="M51.075 8.960999999999999A39.5 39.5 0 1 0 51.075 87.961A39.5 39.5 0 1 0 51.075 8.960999999999999Z"/><path fill="#1f212b" d="M51.075,88.961c-22.332,0-40.5-18.168-40.5-40.5s18.168-40.5,40.5-40.5s40.5,18.168,40.5,40.5S73.407,88.961,51.075,88.961z M51.075,9.961c-21.229,0-38.5,17.271-38.5,38.5s17.271,38.5,38.5,38.5s38.5-17.271,38.5-38.5S72.303,9.961,51.075,9.961z"/><path fill="#fefdef" d="M84.897,45.542c0.619,7.16-1.006,14.551-5.127,21.052C69.742,82.416,48.728,86.976,32.835,76.779s-20.647-31.288-10.619-47.11S53.258,9.288,69.151,19.485c5.649,3.625,9.891,8.626,12.562,14.278"/><path fill="#1f212b" d="M51.248,82.726c-6.557,0-13.001-1.881-18.682-5.526C16.467,66.871,11.635,45.429,21.795,29.402c4.894-7.722,12.512-13.063,21.448-15.04c9.04-2,18.336-0.329,26.178,4.703c5.539,3.554,9.946,8.562,12.745,14.485c0.118,0.25,0.011,0.548-0.238,0.666s-0.546,0.012-0.666-0.238c-2.719-5.753-7-10.619-12.38-14.071c-7.618-4.886-16.645-6.511-25.423-4.568c-8.675,1.919-16.069,7.104-20.82,14.599c-9.865,15.565-5.17,36.389,10.467,46.421c7.617,4.887,16.644,6.509,25.423,4.568c8.675-1.919,16.069-7.104,20.82-14.599c3.939-6.215,5.686-13.387,5.051-20.742c-0.023-0.275,0.18-0.518,0.455-0.541c0.268-0.029,0.518,0.179,0.541,0.455c0.654,7.574-1.146,14.961-5.203,21.363c-4.894,7.722-12.512,13.063-21.448,15.04C56.253,82.454,53.742,82.726,51.248,82.726z"/><path fill="#fefdef" d="M83.7,40.012c0.196,0.801,0.363,1.608,0.501,2.421"/><path fill="#1f212b" d="M84.2,42.934c-0.239,0-0.45-0.172-0.492-0.417c-0.135-0.799-0.301-1.602-0.493-2.386c-0.066-0.268,0.098-0.539,0.366-0.605c0.272-0.066,0.54,0.099,0.604,0.367c0.198,0.808,0.369,1.634,0.509,2.457c0.046,0.272-0.138,0.53-0.41,0.577C84.256,42.931,84.228,42.934,84.2,42.934z"/><path fill="#f37e98" d="M55.314,41.623L34.419,62.645c-0.522,0.526-1.156,1.385-0.633,1.911c0.522,0.526,1.377-0.111,1.9-0.637L56.58,42.897c0.895,0.235,2.516,0.113,3.213-0.589l1.9-1.911c1.045-1.051,1.045-2.771,0-3.822s-2.754-1.051-3.799,0l-1.9,1.911C55.297,39.188,55.08,40.723,55.314,41.623z"/><path fill="#1f212b" d="M34.257 65.253c-.316 0-.603-.119-.826-.344-.296-.298-.825-1.149.634-2.616L54.77 41.461c-.171-1.07.111-2.563.87-3.328l1.899-1.911c1.199-1.207 3.309-1.207 4.508 0 1.241 1.248 1.241 3.279 0 4.527l-1.899 1.911c-.791.796-2.379.955-3.404.782L36.041 64.272C35.595 64.719 34.924 65.253 34.257 65.253zM59.794 36.286c-.585 0-1.134.228-1.545.641l-1.899 1.911c-.546.549-.748 1.904-.552 2.659.045.171-.004.353-.129.479L34.774 62.998c-.522.525-.795 1.044-.633 1.207.035.036.065.048.116.048.181 0 .57-.18 1.074-.686l20.895-21.021c.124-.126.307-.178.481-.131.817.216 2.219.059 2.731-.458l1.899-1.911c.854-.859.854-2.258 0-3.117C60.927 36.514 60.379 36.286 59.794 36.286zM50.075 17.961c-.276 0-.5-.224-.5-.5v-3c0-.276.224-.5.5-.5s.5.224.5.5v3C50.575 17.737 50.351 17.961 50.075 17.961zM50.075 82.961c-.276 0-.5-.224-.5-.5v-4c0-.276.224-.5.5-.5s.5.224.5.5v4C50.575 82.737 50.351 82.961 50.075 82.961zM85.075 47.961h-5c-.276 0-.5-.224-.5-.5s.224-.5.5-.5h5c.276 0 .5.224.5.5S85.351 47.961 85.075 47.961zM20.075 47.961h-2c-.276 0-.5-.224-.5-.5s.224-.5.5-.5h2c.276 0 .5.224.5.5S20.351 47.961 20.075 47.961z"/><path fill="#f37e98" d="M74.453 24.064L71.653 26.881"/><path fill="#1f212b" d="M71.653,27.381c-0.128,0-0.255-0.048-0.353-0.146c-0.195-0.194-0.196-0.511-0.002-0.707l2.8-2.817c0.194-0.196,0.511-0.197,0.707-0.002c0.195,0.194,0.196,0.511,0.002,0.707l-2.8,2.817C71.91,27.332,71.782,27.381,71.653,27.381z"/><path fill="#f37e98" d="M29.667 69.026L26.867 71.843"/><path fill="#1f212b" d="M26.868,72.343c-0.128,0-0.255-0.048-0.353-0.146c-0.195-0.194-0.196-0.511-0.002-0.707l2.8-2.817c0.194-0.196,0.511-0.197,0.707-0.002c0.195,0.194,0.196,0.511,0.002,0.707l-2.8,2.817C27.125,72.294,26.997,72.343,26.868,72.343z"/><path fill="#f37e98" d="M75.304 72.155L72.504 69.338"/><path fill="#1f212b" d="M75.304,72.655c-0.129,0-0.257-0.049-0.354-0.147l-2.8-2.817c-0.194-0.196-0.193-0.513,0.002-0.707c0.197-0.196,0.514-0.193,0.707,0.002l2.8,2.817c0.194,0.196,0.193,0.513-0.002,0.707C75.559,72.607,75.431,72.655,75.304,72.655z"/><path fill="#f37e98" d="M29.98 26.46L27.181 23.643"/><path fill="#1f212b" d="M29.98 26.96c-.129 0-.257-.049-.354-.147l-2.8-2.817c-.194-.196-.193-.513.002-.707.195-.195.512-.193.707.002l2.8 2.817c.194.196.193.513-.002.707C30.235 26.912 30.108 26.96 29.98 26.96zM68.575 48.961h-14c-.553 0-1-.448-1-1s.447-1 1-1h14c.553 0 1 .448 1 1S69.128 48.961 68.575 48.961zM50.575 45.961c-.553 0-1-.448-1-1v-23c0-.552.447-1 1-1s1 .448 1 1v23C51.575 45.513 51.128 45.961 50.575 45.961z"/><path fill="#fef6aa" d="M50.575 44.461A3.5 3.5 0 1 0 50.575 51.461A3.5 3.5 0 1 0 50.575 44.461Z"/><path fill="#1f212b" d="M50.575,51.961c-2.206,0-4-1.794-4-4s1.794-4,4-4s4,1.794,4,4S52.781,51.961,50.575,51.961z M50.575,44.961c-1.654,0-3,1.346-3,3s1.346,3,3,3s3-1.346,3-3S52.229,44.961,50.575,44.961z"/></svg>