<svg id="Layer_5" enable-background="new 0 0 64 64" height="512" viewBox="0 0 64 64" width="512" xmlns="http://www.w3.org/2000/svg"><g><g><path d="m34.147 7.091c-.545.559-1.304.909-2.147.909s-1.602-.35-2.147-.909c-14.439 1.101-25.853 13.193-25.853 27.909 0 15.439 12.561 28 28 28s28-12.561 28-28c0-14.716-11.414-26.808-25.853-27.909zm-2.147 50.909c-12.682 0-23-10.317-23-23s10.318-23 23-23 23 10.317 23 23-10.318 23-23 23z" fill="#f0bc5e"/></g><g><path d="m32 9c2.206 0 4-1.794 4-4s-1.794-4-4-4-4 1.794-4 4 1.794 4 4 4zm0-6c1.103 0 2 .897 2 2s-.897 2-2 2-2-.897-2-2 .897-2 2-2z"/><path d="m32 11c-13.233 0-24 10.767-24 24s10.767 24 24 24 24-10.767 24-24-10.767-24-24-24zm15.945 22.914c1.574.397 2.055.847 2.055 1.086 0 .492-.793.862-2.058 1.141.027-.378.058-.756.058-1.141 0-.367-.031-.725-.055-1.086zm-2.024 2.558c-2.863.354-6.73.47-9.921.509v-7.981c0-1.103-.897-2-2-2h-1v-5.949c7.253.516 13 6.567 13 13.949 0 .497-.028.988-.079 1.472zm-29.863-.331c-1.265-.279-2.058-.649-2.058-1.141 0-.239.481-.689 2.055-1.086-.024.361-.055.719-.055 1.086 0 .385.031.763.058 1.141zm1.942-1.141c0-7.382 5.747-13.433 13-13.949v5.949h-1c-1.103 0-2 .897-2 2v7.981c-3.191-.038-7.058-.155-9.921-.509-.051-.484-.079-.975-.079-1.472zm16.001 6h-4.001v-2.006c.652.003 1.31.006 2 .006.691 0 1.348-.003 2.001-.006zm-2.001-4c-.568 0-1.248 0-2-.003v-7.997h4l.001 7.997c-.753.003-1.433.003-2.001.003zm-4 1.977v2.023c0 1.103.897 2 2 2h1v5.949c-6.058-.431-11.051-4.726-12.535-10.434 2.439.287 5.605.417 9.535.462zm5 4.023h1c1.103 0 2-.897 2-2v-2.023c3.93-.046 7.096-.175 9.535-.462-1.484 5.709-6.477 10.003-12.535 10.434zm-23-8c0-11.796 9.332-21.45 21-21.975v6.025c-7.275.453-13.253 5.771-14.677 12.744-1.627.314-4.323 1.063-4.323 3.206 0 1.619 1.401 2.596 4.32 3.182 1.415 6.984 7.397 12.314 14.68 12.767v6.025c-11.668-.524-21-10.178-21-21.974zm23 21.975v-6.025c7.283-.454 13.265-5.783 14.68-12.767 2.919-.587 4.32-1.564 4.32-3.183 0-2.143-2.696-2.892-4.323-3.205-1.424-6.973-7.402-12.291-14.677-12.744v-6.025c11.668.524 21 10.178 21 21.974s-9.332 21.45-21 21.975z"/></g></g></svg>