<svg height="511pt" viewBox="-51 0 511 511.99983" width="511pt" xmlns="http://www.w3.org/2000/svg"><path d="m135.214844 301.625-.914063.742188c-28.886719 23.953124-70.929687 23.253906-99.007812-1.644532-25.871094-22.949218-33.007813-60.460937-17.367188-91.304687l66.195313-130.484375 69.394531 127.878906c17.320313 31.921875 9.65625 71.632812-18.300781 94.8125zm0 0" fill="#b8eaee"/><path d="m258.519531 492.082031-10.054687 3.355469c-31.800782 10.605469-66.292969 9.878906-97.621094-2.058594-74.914062-28.523437-112.519531-112.382812-83.992188-187.296875.96875-2.554687 2.015626-5.078125 3.128907-7.574219l129.308593-289.398437 142.589844 279.265625c36.457032 71.390625 8.136719 158.820312-63.253906 195.277344-6.484375 3.3125-13.203125 6.128906-20.105469 8.429687zm0 0" fill="#c0f5f9"/><path d="m254.132812 450.53125c-5.050781.003906-9.144531-4.082031-9.152343-9.132812 0-3.453126 1.941406-6.613282 5.027343-8.171876 36.035157-18.035156 58.839844-54.824218 58.964844-95.121093.03125-5.027344 4.113282-9.085938 9.140625-9.085938h.054688c5.027343.03125 9.085937 4.113281 9.085937 9.140625-.144531 47.164063-26.835937 90.230469-69.007812 111.347656-1.273438.660157-2.683594 1.011719-4.113282 1.023438zm0 0" fill="#b8eaee"/><path d="m363.8125 447.84375h18.28125v18.28125h-18.28125zm0 0" fill="#b3e4e8"/><path d="m391.234375 411.28125h18.28125v18.28125h-18.28125zm0 0" fill="#b8eaee"/><path d="m336.394531 484.40625h18.28125v18.28125h-18.28125zm0 0" fill="#b8eaee"/><path d="m207.433594 4.949219c-2.316406-4.484375-7.828125-6.246094-12.316406-3.929688-1.832032.945313-3.289063 2.480469-4.136719 4.359375l-61.605469 137.792969-37.230469-68.554687c-1.578125-3.023438-4.742187-4.878907-8.152343-4.78125-3.398438.050781-6.488282 1.976562-8.023438 5.011718l-66.1875 130.414063c-21.3125 41.828125-4.679688 93.015625 37.152344 114.328125 1.796875.917968 3.628906 1.769531 5.488281 2.554687-17.914063 75.328125 22.824219 152.257813 95.195313 179.773438 33.289062 12.644531 69.921874 13.417969 103.714843 2.195312l10.054688-3.363281c80.847656-26.929688 124.554687-114.296875 97.625-195.140625-2.445313-7.347656-5.441407-14.5-8.960938-21.394531zm-149.609375 299.65625c-33.582031-15.429688-48.300781-55.160157-32.871094-88.742188.359375-.785156.738281-1.5625 1.128906-2.332031l58.3125-114.929688 35.585938 65.589844-58.355469 130.589844c-1.441406 3.234375-2.59375 6.535156-3.800781 9.824219zm280.671875 101.285156c-14.996094 36.6875-45.261719 65-82.867188 77.519531l-10.054687 3.351563c-29.800781 9.910156-62.113281 9.222656-91.464844-1.945313-70.191406-26.726562-105.425781-105.289062-78.699219-175.480468.910156-2.390626 1.890625-4.757813 2.933594-7.097657l121.566406-271.960937 133.90625 262.246094c18.019532 35.296874 19.730469 76.703124 4.679688 113.367187zm0 0"/><path d="m318.167969 329.019531h-.054688c-5.027343 0-9.109375 4.058594-9.140625 9.085938-.121094 40.292969-22.925781 77.085937-58.953125 95.121093-4.527343 2.242188-6.378906 7.722657-4.136719 12.25 2.238282 4.523438 7.71875 6.375 12.246094 4.136719.039063-.019531.078125-.039062.117188-.058593 42.171875-21.117188 68.863281-64.183594 69.007812-111.347657.023438-5.046875-4.042968-9.15625-9.085937-9.1875zm0 0"/><path d="m363.8125 447.84375h18.28125v18.28125h-18.28125zm0 0"/><path d="m391.234375 411.28125h18.28125v18.28125h-18.28125zm0 0"/><path d="m336.394531 484.40625h18.28125v18.28125h-18.28125zm0 0"/></svg>