<?xml version="1.0" encoding="utf-8"?><svg xml:space="preserve" viewBox="0 0 100 100" y="0" x="0" xmlns="http://www.w3.org/2000/svg" id="圖層_1" version="1.1" width="47px" height="47px" xmlns:xlink="http://www.w3.org/1999/xlink" style="width:100%;height:100%;background-size:initial;background-repeat-y:initial;background-repeat-x:initial;background-position-y:initial;background-position-x:initial;background-origin:initial;background-image:initial;background-color:rgb(255, 255, 255);background-clip:initial;background-attachment:initial;animation-play-state:paused" ><g class="ldl-scale" style="transform-origin:50% 50%;transform:rotate(0deg) scale(0.8, 0.8);animation-play-state:paused" ><path stroke-miterlimit="10" stroke-width="3.5" stroke="#333" stroke-linecap="round" fill="#f47e60" d="M50 7.5c-13.1 0-23.6 10.6-23.6 23.6 0 .9.1 1.8.2 2.7h0c.1.7.2 1.3.4 2l.7 2.4c.2.8.5 1.6.8 2.3L49 91.9c.3.9 1.6.9 1.9 0l20.7-51.2c.3-.8.6-1.5.8-2.3l.7-2.4c.2-.7.3-1.3.4-2h0c.1-.9.2-1.8.2-2.7C73.6 18.1 63.1 7.5 50 7.5zm0 33.7c-5.6 0-10.1-4.5-10.1-10.1s4.5-10 10.1-10 10.1 4.5 10.1 10.1-4.5 10-10.1 10z" style="stroke:rgb(51, 51, 51);fill:rgb(244, 126, 96);animation-play-state:paused" ></path>
<path stroke-miterlimit="10" stroke-width="3.5" stroke="#000" stroke-linejoin="round" stroke-linecap="round" opacity=".2" d="M50 7.5c-1.7 0-3.4.2-5 .5 10.7 2.3 18.6 11.8 18.6 23.1 0 .9-.1 1.8-.2 2.7h0c-.1.7-.2 1.3-.4 2l-.7 2.4c-.2.8-.5 1.6-.8 2.3L45 81.8l4 10c.3.9 1.6.9 1.9 0l20.7-51.2c.3-.8.6-1.5.8-2.3l.7-2.4c.2-.7.3-1.3.4-2h0c.1-.9.2-1.8.2-2.7C73.6 18.1 63.1 7.5 50 7.5z" style="stroke:rgb(0, 0, 0);animation-play-state:paused" ></path>
<path stroke-miterlimit="10" stroke-width="3.5" stroke="#fff" stroke-linecap="round" fill="none" d="M39.1 17.5c1.9-1.6 4.2-2.7 6.7-3.3" style="stroke:rgb(255, 255, 255);animation-play-state:paused" ></path>
<path stroke-miterlimit="10" stroke-width="3.5" stroke="#fff" stroke-linecap="round" fill="none" d="M34.6 22.9c.2-.4.5-.9.8-1.3" style="stroke:rgb(255, 255, 255);animation-play-state:paused" ></path>
<metadata xmlns:d="https://loading.io/stock/" style="animation-play-state:paused" ><d:name style="animation-play-state:paused" >location</d:name>


<d:tags style="animation-play-state:paused" >location,place,locality,marker,landmark,waypoint,gps</d:tags>


<d:license style="animation-play-state:paused" >by</d:license>


<d:slug style="animation-play-state:paused" >fwt0mr</d:slug></metadata></g><!-- generated by https://loading.io/ --></svg>