<?xml version="1.0" encoding="iso-8859-1"?>
<!-- Generator: Adobe Illustrator 19.0.0, SVG Export Plug-In . SVG Version: 6.00 Build 0)  -->
<svg version="1.1" id="Layer_1" xmlns="http://www.w3.org/2000/svg" xmlns:xlink="http://www.w3.org/1999/xlink" x="0px" y="0px"
	 viewBox="0 0 512 512" style="enable-background:new 0 0 512 512;" xml:space="preserve">
<path style="fill:#E54728;" d="M303.03,393.181c0,25.964-21.05,47.026-47.026,47.039c-1.126,0-2.251-0.036-3.389-0.121
	c-23.289-1.634-42.076-20.566-43.552-43.867c-1.283-20.263,10.289-37.972,27.344-45.804V207.884h39.195v142.544
	C291.785,357.86,303.03,374.201,303.03,393.181z"/>
<path style="fill:#F95428;" d="M275.601,350.428V207.884h-19.597v138.188c0,10.347-4.343,20.105-11.64,27.44
	c-5.512,5.542-8.92,13.18-8.92,21.614c0,9.264,4.108,17.564,10.602,23.184c6.35,5.497,9.957,13.51,9.957,21.909l0,0
	c25.977-0.012,47.026-21.074,47.026-47.039C303.03,374.201,291.785,357.86,275.601,350.428z"/>
<path style="fill:#2197D8;" d="M275.601,91.389v116.495h-39.195V91.389c0-5.411,2.191-10.313,5.738-13.86
	c3.547-3.547,8.449-5.738,13.86-5.738C266.825,71.791,275.601,80.567,275.601,91.389z"/>
<path style="fill:#2BA5F7;" d="M275.601,91.389v116.495h-19.597V71.791C266.825,71.791,275.601,80.567,275.601,91.389z"/>
<path style="fill:#F7B239;" d="M374.556,35.405v441.189c0,14.538-11.778,26.328-26.328,26.328H163.766
	c-14.538,0-26.328-11.79-26.328-26.328V35.405c0-14.538,11.79-26.328,26.328-26.328h184.462
	C362.779,9.077,374.556,20.867,374.556,35.405z M303.03,393.181c0-18.98-11.245-35.321-27.429-42.754V207.884V91.389
	c0-10.822-8.776-19.597-19.597-19.597c-5.411,0-10.313,2.191-13.86,5.738c-3.547,3.547-5.738,8.449-5.738,13.86v116.495v142.544
	c-17.055,7.832-28.627,25.541-27.344,45.804c1.477,23.301,20.263,42.233,43.552,43.867
	C280.128,442.011,303.03,420.271,303.03,393.181z"/>
<path style="fill:#E09B2D;" d="M162.857,476.594V35.405c0-14.538,11.79-26.328,26.328-26.328h-25.419
	c-14.538,0-26.328,11.79-26.328,26.328v441.189c0,14.538,11.79,26.328,26.328,26.328h25.418
	C174.647,502.922,162.857,491.132,162.857,476.594z"/>
<g>
	<path style="fill:#FFFFFF;" d="M344.295,324.492c-5.014,0-9.078-4.065-9.078-9.078V72.123c0-5.014,4.065-9.078,9.078-9.078
		s9.078,4.065,9.078,9.078v243.291C353.373,320.427,349.309,324.492,344.295,324.492z"/>
	<path style="fill:#FFFFFF;" d="M272.769,402.26c-5.014,0-9.078-4.065-9.078-9.078c0-2.997-1.768-5.746-4.507-7.003
		c-4.556-2.093-6.555-7.482-4.462-12.039c2.092-4.556,7.482-6.555,12.039-4.462c9.164,4.209,15.086,13.434,15.086,23.504
		C281.847,398.195,277.782,402.26,272.769,402.26z"/>
</g>
<g>
	<path style="fill:#333333;" d="M348.231,0H163.769c-19.525,0-35.408,15.885-35.408,35.408v441.183
		c0,19.525,15.885,35.408,35.408,35.408h184.462c19.525,0,35.408-15.885,35.408-35.408V35.408C383.64,15.885,367.756,0,348.231,0z
		 M365.483,476.592c0,9.513-7.74,17.252-17.251,17.252H163.769c-9.513,0-17.252-7.74-17.252-17.252V35.408
		c0-9.513,7.74-17.252,17.252-17.252h184.462c9.513,0,17.251,7.74,17.251,17.252V476.592z"/>
	<path style="fill:#333333;" d="M284.675,344.956V91.386c0-15.812-12.864-28.676-28.676-28.676s-28.675,12.864-28.675,28.676
		v253.558c-18.09,10.701-28.672,30.455-27.321,51.856c1.76,27.896,24.109,50.402,51.983,52.35c1.364,0.096,2.724,0.143,4.074,0.143
		c14.257,0,27.693-5.272,38.201-15.07c11.344-10.579,17.851-25.538,17.851-41.043C312.111,373.328,301.516,354.992,284.675,344.956z
		 M256,80.867c5.801,0,10.518,4.718,10.518,10.519v107.422h-21.037V91.386C245.481,85.586,250.199,80.867,256,80.867z
		 M281.877,420.944c-7.781,7.255-17.951,10.838-28.626,10.093c-18.837-1.317-33.939-16.526-35.129-35.381
		c-1-15.851,7.662-30.367,22.067-36.981c3.225-1.48,5.291-4.703,5.291-8.251V216.966h21.037v133.461c0,3.548,2.066,6.77,5.291,8.251
		c13.453,6.177,22.145,19.72,22.145,34.503C293.954,403.821,289.665,413.681,281.877,420.944z"/>
	<path style="fill:#333333;" d="M185.941,225.884h17.638c5.014,0,9.078-4.065,9.078-9.078s-4.065-9.078-9.078-9.078h-17.638
		c-5.014,0-9.078,4.065-9.078,9.078S180.926,225.884,185.941,225.884z"/>
	<path style="fill:#333333;" d="M185.941,175.423h17.638c5.014,0,9.078-4.065,9.078-9.078s-4.065-9.078-9.078-9.078h-17.638
		c-5.014,0-9.078,4.065-9.078,9.078S180.926,175.423,185.941,175.423z"/>
	<path style="fill:#333333;" d="M185.941,124.961h17.638c5.014,0,9.078-4.065,9.078-9.078s-4.065-9.078-9.078-9.078h-17.638
		c-5.014,0-9.078,4.065-9.078,9.078S180.926,124.961,185.941,124.961z"/>
	<path style="fill:#333333;" d="M185.941,276.347h17.638c5.014,0,9.078-4.065,9.078-9.078s-4.065-9.078-9.078-9.078h-17.638
		c-5.014,0-9.078,4.065-9.078,9.078S180.926,276.347,185.941,276.347z"/>
	<path style="fill:#333333;" d="M212.656,317.731c0-5.014-4.065-9.078-9.078-9.078H185.94c-5.014,0-9.078,4.065-9.078,9.078
		s4.065,9.078,9.078,9.078h17.638C208.591,326.809,212.656,322.744,212.656,317.731z"/>
</g>
<circle style="fill:#FFFFFF;" cx="344.291" cy="39.158" r="9.078"/>
<g>
</g>
<g>
</g>
<g>
</g>
<g>
</g>
<g>
</g>
<g>
</g>
<g>
</g>
<g>
</g>
<g>
</g>
<g>
</g>
<g>
</g>
<g>
</g>
<g>
</g>
<g>
</g>
<g>
</g>
</svg>
